<svg xmlns="http://www.w3.org/2000/svg" viewBox="0 0 68 68" id="shirt"><g fill="#fff"><path d="m36 15.8-2 2.44-1.99-2.44H36zM34 21.38l-.01.01.01.01.01-.01zm22.49-1.8v36.65A5.78 5.78 0 0 1 50.71 62H35V29.03l1.42 1.78a3.036 3.036 0 0 0 2.35 1.14h.11a3.008 3.008 0 0 0 2.35-1.28l9.91-14.14a2.98 2.98 0 0 0 .39-2.66 5.769 5.769 0 0 1 4.96 5.71zM33 29.03V62H17.29a5.78 5.78 0 0 1-5.78-5.77v-3.6h9.36a3.393 3.393 0 0 0 3.39-3.39V36.11a1.003 1.003 0 0 0-1-1H11.51V19.58a5.76 5.76 0 0 1 4.95-5.71 2.991 2.991 0 0 0 .39 2.65l.3.43 9.61 13.71a3.024 3.024 0 0 0 2.36 1.29h.11a3.023 3.023 0 0 0 2.34-1.13zM41.69 8.85l-.6.73-2.42 2.95-1.04 1.27h-7.26l-3.46-4.21-.6-.74h15.38z"></path><path d="m49.5 15.38-.29.42-3.54 5.05-6.08 8.67a.992.992 0 0 1-.78.43h-.04a1 1 0 0 1-.78-.38L35 25.83l-1-1.25-1 1.25-2.99 3.74a1 1 0 0 1-.78.38h-.04a.992.992 0 0 1-.78-.43l-6.08-8.67-3.54-5.05-.29-.42a1.005 1.005 0 0 1 .03-1.2l.3-.38 3.6-4.51a.7.7 0 0 1 .08-.1.382.382 0 0 1 .09-.09.906.906 0 0 1 .16-.11.667.667 0 0 1 .21-.09.037.037 0 0 1 .03-.01.36.36 0 0 1 .11-.02.389.389 0 0 1 .15-.02.943.943 0 0 1 .77.37l1.33 1.63 2.42 2.95 1.64 2 4.57 5.59.01.01.01-.01 4.57-5.59 1.64-2 2.42-2.95 1.33-1.63a1.016 1.016 0 0 1 .77-.37.389.389 0 0 1 .15.02.36.36 0 0 1 .11.02.037.037 0 0 1 .03.01.667.667 0 0 1 .21.09.906.906 0 0 1 .16.11.382.382 0 0 1 .09.09.7.7 0 0 1 .08.1l3.6 4.51.3.38a1.005 1.005 0 0 1 .03 1.2ZM11.51 37.11h10.75v2.78H11.51zM22.26 41.89v7.35a1.393 1.393 0 0 1-1.39 1.39h-9.36v-8.74Z"></path></g></svg>